<svg xmlns:xlink="http://www.w3.org/1999/xlink" xmlns="http://www.w3.org/2000/svg" width="40" height="40" fill="none" viewBox="0 0 40 40">
  <circle cx="20" cy="20" r="19.5" fill="#EDEEEE" stroke="#F08080" stroke-linecap="square"/>
  <path fill="#E00000" fill-rule="evenodd" d="M23.489 13.227c.97 0 1.845.394 2.47 1.027.84-.132 1.91-.57 2.15-.74-.285.722-.71 1.292-1.443 1.788l.012.03c.793-.116 1.85-.484 1.85-.484-.492.655-1.03 1.252-1.602 1.672.001.025.005.049.005.074 0 .047-.005.093-.007.14.003.091.008.184.008.278 0 5.273-4.371 9.549-9.762 9.549a9.866 9.866 0 0 1-5.308-1.537c.263.018.525.029.79.029 1.301 0 2.644-.266 4.252-1.407-2.572 0-3.245-2.316-3.245-2.316.183.043.37.058.551.058.538 0 .998-.144.998-.144-1.373-.2-2.776-1.83-2.776-3.403.758.435 1.423.457 1.554.457h.024c-1.17-.83-2.076-2.544-1.052-4.489 2.434 2.588 4.677 3.417 7.162 3.466a3.275 3.275 0 0 1-.071-.681c0-1.86 1.54-3.367 3.442-3.367z" clip-rule="evenodd"/>
</svg>