<?xml version="1.0" encoding="utf-8"?>
<!-- Generator: Adobe Illustrator 27.5.0, SVG Export Plug-In . SVG Version: 6.00 Build 0)  -->
<svg version="1.1" xmlns="http://www.w3.org/2000/svg" xmlns:xlink="http://www.w3.org/1999/xlink" x="0px" y="0px"
	 viewBox="0 0 2200 2200" style="enable-background:new 0 0 2200 2200;" xml:space="preserve">
<g id="background">
	<rect style="fill:#FFFFFF;" width="2200" height="2200"/>
</g>
<g id="Objects">
	<g>
		<path style="fill:#CCD9E2;" d="M1253.889,1614.222c-178.459,0-346.236-69.495-472.424-195.686
			c-126.191-126.188-195.686-293.965-195.686-472.424s69.495-346.236,195.686-472.426C907.653,347.496,1075.43,278,1253.889,278
			s346.236,69.496,472.424,195.685C1852.505,599.875,1922,767.652,1922,946.111s-69.495,346.236-195.686,472.424
			C1600.125,1544.726,1432.348,1614.222,1253.889,1614.222z M1253.889,399.66c-145.962,0-283.189,56.841-386.398,160.052
			c-103.212,103.212-160.053,240.437-160.053,386.4s56.841,283.189,160.053,386.398c103.21,103.212,240.436,160.053,386.398,160.053
			s283.189-56.841,386.399-160.053c103.212-103.21,160.053-240.436,160.053-386.398s-56.841-283.188-160.053-386.4
			C1537.078,456.5,1399.852,399.66,1253.889,399.66z"/>
		<path style="fill:#12223A;" d="M797.634,1507.537l-402.813,402.788c-15.541,15.566-40.799,15.566-56.366,0l-48.781-48.781
			c-15.566-15.566-15.566-40.824,0-56.366l402.788-402.813c15.542,19.16,32.198,37.627,49.871,55.3
			C760.008,1475.339,778.474,1491.995,797.634,1507.537z"/>
		<path style="fill:#12223A;" d="M1621.9,1282.72c-4.98,5.44-10.11,10.8-15.36,16.05c-94.19,94.19-219.43,146.07-352.65,146.07
			s-258.46-51.88-352.66-146.07c-5.25-5.25-10.38-10.61-15.35-16.05c8.5-86.07,44.68-150.79,80.4-177.58
			c81.87-61.39,187.17-88.34,187.17-88.34l48.77,117.64l38.19-72.31l-21.13-33.53c0.45,0.26,14.86,5.46,34.61,5.46
			c19.74,0,34.16-5.2,34.61-5.46l-21.13,33.53l38.19,72.31l48.77-117.64c0,0,105.3,26.95,187.17,88.34
			C1577.21,1131.93,1613.4,1196.65,1621.9,1282.72z"/>
		<path style="fill:#12223A;" d="M1460.736,772.589c0,14.222-17.572,64.811-38.813,78.804
			c-6.619,62.547-46.038,115.582-96.25,142.368c0,0-28.455,15.137-71.784,15.137c-49.114,0-71.682-15.88-71.682-15.88
			c-49.377-27.003-89.482-79.627-96.296-141.614c-21.276-13.959-38.87-64.57-38.87-78.815c0-16.577,13.445-30.01,30.022-30.01
			c1.623,0,3.213,0.126,4.767,0.389c-6.494-36.973-11.512-74.814-4.733-111.649c7.157-38.95,29.107-78.907,66.125-93.014
			c35.395-13.479,71.899-17.172,103.452-17.938c46.53-1.143,98.582,5.796,132.902,26.729
			c40.585,24.751,67.314,60.386,43.318,196.524c2.492-0.674,5.122-1.04,7.82-1.04
			C1447.292,742.579,1460.736,756.012,1460.736,772.589z"/>
	</g>
</g>
</svg>
