<svg xmlns:xlink="http://www.w3.org/1999/xlink" xmlns="http://www.w3.org/2000/svg" width="16" height="16" fill="none" viewBox="0 0 16 16" class="dad99300"><path fill-rule="evenodd" d="M12 13.33A1.33 1.33 0 0 1 10.67 12c0-.74.6-1.33 1.33-1.33a1.33 1.33 0 0 1 0 2.66zm-8-4A1.33 1.33 0 0 1 2.67 8c0-.74.6-1.33 1.33-1.33a1.33 1.33 0 0 1 0 2.66zm8-6.66a1.33 1.33 0 0 1 0 2.66A1.33 1.33 0 0 1 10.67 4c0-.74.6-1.33 1.33-1.33zm0 6.66c-.82 0-1.54.38-2.03.96L6.61 8.5a2.64 2.64 0 0 0 0-1.02L9.97 5.7c.49.58 1.2.96 2.03.96A2.67 2.67 0 1 0 9.38 4.5L6.04 6.29A2.65 2.65 0 0 0 4 5.33a2.67 2.67 0 0 0 0 5.34 2.65 2.65 0 0 0 2.03-.96l3.35 1.78A2.67 2.67 0 1 0 12 9.33z" clip-rule="evenodd" fill="#23262A"></path></svg>